<svg width="13" height="19" viewBox="0 0 13 19" fill="none" xmlns="http://www.w3.org/2000/svg">
<path d="M1.66667 18.3333C1.20833 18.3333 0.815972 18.1701 0.489583 17.8438C0.163194 17.5174 0 17.125 0 16.6667V1.66667C0 1.20833 0.163194 0.815972 0.489583 0.489583C0.815972 0.163194 1.20833 0 1.66667 0H10C10.4583 0 10.8507 0.163194 11.1771 0.489583C11.5035 0.815972 11.6667 1.20833 11.6667 1.66667V4.25C11.9167 4.34722 12.1181 4.5 12.2708 4.70833C12.4236 4.91667 12.5 5.15278 12.5 5.41667V7.08333C12.5 7.34722 12.4236 7.58333 12.2708 7.79167C12.1181 8 11.9167 8.15278 11.6667 8.25V16.6667C11.6667 17.125 11.5035 17.5174 11.1771 17.8438C10.8507 18.1701 10.4583 18.3333 10 18.3333H1.66667ZM1.66667 16.6667H10V1.66667H1.66667V16.6667ZM1.66667 16.6667V1.66667V16.6667ZM4.04167 12.5H7.625C7.81944 12.5 7.98611 12.4306 8.125 12.2917C8.26389 12.1528 8.33333 11.9861 8.33333 11.7917V9.04167C8.33333 8.84722 8.26389 8.68056 8.125 8.54167C7.98611 8.40278 7.81944 8.33333 7.625 8.33333H7.5V7.5C7.5 7.04167 7.33681 6.64931 7.01042 6.32292C6.68403 5.99653 6.29167 5.83333 5.83333 5.83333C5.375 5.83333 4.98264 5.99653 4.65625 6.32292C4.32986 6.64931 4.16667 7.04167 4.16667 7.5V8.33333H4.04167C3.84722 8.33333 3.68056 8.40278 3.54167 8.54167C3.40278 8.68056 3.33333 8.84722 3.33333 9.04167V11.7917C3.33333 11.9861 3.40278 12.1528 3.54167 12.2917C3.68056 12.4306 3.84722 12.5 4.04167 12.5ZM5 8.33333V7.5C5 7.26389 5.07986 7.06597 5.23958 6.90625C5.39931 6.74653 5.59722 6.66667 5.83333 6.66667C6.06944 6.66667 6.26736 6.74653 6.42708 6.90625C6.58681 7.06597 6.66667 7.26389 6.66667 7.5V8.33333H5Z" fill="#006C49"/>
</svg>
