<svg width="29" height="35" viewBox="0 0 29 35" fill="none" xmlns="http://www.w3.org/2000/svg">
<rect width="28.8333" height="34.3333" rx="8" fill="#006C49" fill-opacity="0.1"/>
<path d="M14.4167 21.2688C15.9292 20.0465 17.0712 18.8701 17.8427 17.7396C18.6142 16.609 19 15.5472 19 14.5542C19 13.1792 18.5722 12.0486 17.7167 11.1625C16.8611 10.2764 15.7611 9.83333 14.4167 9.83333C13.0722 9.83333 11.9722 10.2764 11.1167 11.1625C10.2611 12.0486 9.83333 13.1792 9.83333 14.5542C9.83333 15.5472 10.2191 16.609 10.9906 17.7396C11.7622 18.8701 12.9042 20.0465 14.4167 21.2688ZM14.4167 23.5833C12.2625 21.9944 10.6545 20.4514 9.59271 18.9542C8.5309 17.4569 8 15.9903 8 14.5542C8 12.6444 8.59583 11.0747 9.7875 9.84479C10.9792 8.61493 12.5222 8 14.4167 8C16.3111 8 17.8542 8.61493 19.0458 9.84479C20.2375 11.0747 20.8333 12.6444 20.8333 14.5542C20.8333 15.9903 20.3024 17.4569 19.2406 18.9542C18.1788 20.4514 16.5708 21.9944 14.4167 23.5833ZM14.4167 16.25C14.9208 16.25 15.3524 16.0705 15.7115 15.7115C16.0705 15.3524 16.25 14.9208 16.25 14.4167C16.25 13.9125 16.0705 13.4809 15.7115 13.1219C15.3524 12.7628 14.9208 12.5833 14.4167 12.5833C13.9125 12.5833 13.4809 12.7628 13.1219 13.1219C12.7628 13.4809 12.5833 13.9125 12.5833 14.4167C12.5833 14.9208 12.7628 15.3524 13.1219 15.7115C13.4809 16.0705 13.9125 16.25 14.4167 16.25ZM8 26.3333V24.5H20.8333V26.3333H8Z" fill="#006C49"/>
</svg>
